<?xml version="1.0" encoding="utf-8"?>
<!-- Generator: Adobe Illustrator 27.4.1, SVG Export Plug-In . SVG Version: 6.00 Build 0)  -->
<svg version="1.1" id="Warstwa_1" xmlns="http://www.w3.org/2000/svg" xmlns:xlink="http://www.w3.org/1999/xlink" x="0px" y="0px"
	 viewBox="0 0 2113 2500" style="enable-background:new 0 0 2113 2500;" xml:space="preserve">
<style type="text/css">
	.st0{fill:#004482;}
	.st1{fill:#00599C;}
	.st2{fill:#659AD2;}
	.st3{fill:#FFFFFF;}
</style>
<path class="st0" d="M1983.8,598.9c-244.4-140.6-488.7-281.5-732.8-422.4C1495.3,317.1,1739.6,457.9,1983.8,598.9z"/>
<path class="st0" d="M1739.2,855.1L1487.7,1000L1739.2,855.1C1739.2,855.1,1739.2,855.1,1739.2,855.1z"/>
<path class="st0" d="M2058.1,671.3c9.1,16.6,15.7,34.3,19.9,52.5c-0.2-0.9-0.4-1.8-0.6-2.7c-0.1-0.4-0.2-0.7-0.3-1.1
	c-0.2-1-0.5-1.9-0.8-2.9c-0.6-2.4-1.3-4.8-2-7.2c0,0,0-0.1,0-0.1c-0.4-1.2-0.8-2.4-1.1-3.6c-0.4-1.2-0.8-2.4-1.2-3.6
	c-0.1-0.2-0.1-0.4-0.2-0.7c-0.3-0.9-0.6-1.8-1-2.7c-0.1-0.4-0.3-0.8-0.5-1.2c-0.3-0.9-0.7-1.7-1-2.6c-1.4-3.5-2.8-7-4.4-10.4
	c-0.1-0.2-0.2-0.4-0.3-0.6c-1-2.2-2-4.3-3.1-6.4c-0.6-1.1-1.2-2.3-1.7-3.4C2059.2,673.6,2058.6,672.4,2058.1,671.3
	c-15.7-26.6-37.2-49.1-63-65.7C2020.9,622.2,2042.5,644.7,2058.1,671.3z"/>
<path class="st0" d="M2078.2,724.5c-0.1-0.2-0.1-0.5-0.2-0.7c0,0.1,0,0.2,0.1,0.3C2078.1,724.3,2078.2,724.4,2078.2,724.5z"/>
<path class="st1" d="M1739.2,855.1L1487.7,1000L1739.2,855.1C1739.2,855.1,1739.2,855.1,1739.2,855.1z"/>
<path d="M2083.9,1726V774h-0.8c0.2-7.2-0.1-14.5-0.7-21.7c-0.1-1.3-0.2-2.7-0.4-4c-0.1-0.9-0.2-1.8-0.3-2.6
	c-0.1-1.2-0.3-2.5-0.5-3.7c-0.3-2.6-0.7-5.1-1.2-7.6c-0.4-2.1-0.8-4.1-1.2-6.2c-0.3-1.2-0.5-2.5-0.8-3.7c0-0.1-0.1-0.3-0.1-0.4
	c-0.2-1-0.5-2-0.7-3c-0.1-0.4-0.2-0.7-0.3-1.1c-0.2-1-0.5-1.9-0.8-2.9c-0.6-2.4-1.3-4.8-2-7.2c0,0,0-0.1,0-0.1
	c-0.4-1.2-0.8-2.4-1.1-3.6c-0.4-1.2-0.8-2.4-1.2-3.6c-0.1-0.2-0.1-0.4-0.2-0.7c-0.3-0.9-0.6-1.8-1-2.7c-0.1-0.4-0.3-0.8-0.5-1.2
	c-0.3-0.9-0.7-1.7-1-2.6c-1.4-3.5-2.8-7-4.4-10.4c-0.1-0.2-0.2-0.4-0.3-0.6c-1-2.2-2-4.3-3.1-6.4c-0.6-1.1-1.2-2.3-1.7-3.4
	c-0.6-1.1-1.2-2.2-1.8-3.4c-15.6-26.6-37.1-49.1-62.9-65.7c-3.7-2.4-7.5-4.6-11.3-6.8c-244.4-140.6-488.7-281.5-732.8-422.4
	c-29.3-16.8-58.6-33.7-87.8-50.5c-73.7-42.6-145.1-41.1-218.3,2.2C836,192,291.1,504.6,128.7,598.8c-66.9,38.7-99.4,98.1-99.4,175.1
	v952.2c-0.7,35,7.6,69.6,24,100.6c0,0,0,0.1,0.1,0.1c17.8,31.3,44,57.1,75.6,74.4c162.4,94.5,707.4,406.7,816.3,470.9
	c73.2,43.3,144.6,44.8,218.4,2.2c273.4-157.9,546.9-315.7,820.6-473.2c31.6-17.3,57.7-43.1,75.6-74.4
	C2076.3,1795.7,2084.6,1761.1,2083.9,1726z M755.8,1421.6c0,0,0,0.1,0.1,0.1c2.9,6.1,6.1,12.1,9.4,18
	c66.4,120.4,193.1,195.1,330.6,194.9c127,0.1,245.6-63.9,315.2-170.1l323.9,195.8c-66.2,103.7-156.9,189.6-263.9,250.3
	c-362.7,205.6-823.4,78.2-1028.9-284.5c-2.9-6-6.2-11.9-9.4-18c0,0-0.1-0.1-0.1-0.2c-169.4-324.6-81.4-723.9,208.7-947.3
	c330.2-254.2,804-192.7,1058.3,137.5c0.1,0.1,0.1,0.1,0.2,0.2c4.5,6.1,9.4,12.4,14,18.9c8.8,12.2,17.2,24.8,25.3,37.7c0,0,0,0,0,0.1
	L1487.7,1000l-79.8,45.9c-2.1-3.2-4.3-6.3-6.6-9.4c-5-6.4-9.4-12.7-14.3-18.7c-0.1-0.1-0.1-0.1-0.2-0.2
	c-110.6-134.6-299-175.9-455.9-100C743.5,1008.4,665,1234.1,755.8,1421.6z"/>
<path class="st2" d="M1251,176.4c-29.3-16.8-58.6-33.7-87.8-50.5c-73.7-42.6-145.1-41.1-218.3,2.2C836,192,291.1,504.6,128.7,598.8
	c-66.9,38.7-99.4,98.1-99.4,175.1v952.2c-0.7,35,7.6,69.6,24,100.6l-0.2,0.1c-16.4-30.9-24.6-65.6-23.9-100.6V773.9
	c0-77.1,32.6-136.4,99.4-175.1C291.1,504.6,836,192,945,127.9c73-43.3,144.5-44.8,218.2-2.2C1192.4,142.6,1221.7,159.5,1251,176.4z"
	/>
<path class="st3" d="M1739.2,855.1L1487.7,1000L1739.2,855.1C1739.2,855.1,1739.2,855.1,1739.2,855.1z"/>
</svg>
