<?xml version="1.0" encoding="utf-8"?>
<!-- Generator: Adobe Illustrator 27.4.1, SVG Export Plug-In . SVG Version: 6.00 Build 0)  -->
<svg version="1.1" id="Layer_1" xmlns="http://www.w3.org/2000/svg" xmlns:xlink="http://www.w3.org/1999/xlink" x="0px" y="0px"
	 viewBox="0 0 119 112" style="enable-background:new 0 0 119 112;" xml:space="preserve">
<style type="text/css">
	.st0{fill:#69D3A7;}
	.st1{fill:url(#SVGID_1_);}
	.st2{fill:#1B1E2E;}
</style>
<g>
	<path class="st0" d="M16.6,36.7c-0.1,0-0.3,0.1-0.4,0.2l-1.3-3.1l0,0c0.1,0,0.1,0,0.2-0.1c0.1,0,0.2-0.1,0.3-0.1l0,0L16.6,36.7z"/>
	
		<linearGradient id="SVGID_1_" gradientUnits="userSpaceOnUse" x1="21.6073" y1="83.5958" x2="39.8723" y2="64.0741" gradientTransform="matrix(1 0 0 -1 0 114)">
		<stop  offset="9.390001e-02" style="stop-color:#1D1D1B"/>
		<stop  offset="0.9883" style="stop-color:#1D1D1B;stop-opacity:0"/>
	</linearGradient>
	<path class="st1" d="M45.5,44.9l-3,1.6c-3.6-6.9-10.7-11.2-18.4-11.2c-2.7,0-5.4,0.5-7.9,1.6l0,0l-1.3-3.1l0,0c0.1,0,0.1,0,0.2-0.1
		c0.1,0,0.2-0.1,0.3-0.1c2.8-1.1,5.7-1.6,8.7-1.6C33.1,32,41.3,37,45.5,44.9z"/>
	<path d="M16.9,51c1.9,0,3.5,1,4.3,2.8l0.1,0.1l3.3-1.1l-0.1-0.2c-1.3-3.1-4.2-5-7.6-5c-2.4,0-4.4,0.8-6,2.4
		c-1.6,1.6-2.4,3.6-2.4,5.9s0.8,4.3,2.4,5.9c1.6,1.6,3.6,2.4,6,2.4c3.4,0,6.3-1.9,7.6-5l0.1-0.2l-3.3-1.1L21.2,58
		c-0.7,1.8-2.3,2.8-4.3,2.8c-1.4,0-2.5-0.5-3.4-1.4c-0.9-0.9-1.4-2.1-1.4-3.5c0-1.4,0.5-2.6,1.4-3.6C14.4,51.5,15.5,51,16.9,51z"/>
	<path d="M57.1,50.1c-1.5-1.6-3.4-2.4-5.6-2.4c-2.2,0-4,0.8-5.4,2.3v-2h-3.5v22h3.5v-8.1c1.4,1.5,3.2,2.3,5.4,2.3s4.1-0.8,5.6-2.4
		c1.5-1.6,2.2-3.5,2.2-5.8S58.6,51.7,57.1,50.1z M54.3,59.5c-0.9,0.9-2,1.4-3.4,1.4s-2.5-0.5-3.4-1.4s-1.4-2.1-1.4-3.5
		s0.5-2.6,1.4-3.6c0.9-0.9,2-1.4,3.4-1.4s2.5,0.5,3.4,1.4c0.9,0.9,1.3,2.1,1.3,3.6C55.7,57.4,55.2,58.6,54.3,59.5z"/>
	<path d="M65,50v-1.9h-3.5v15.8H65V55c0-1.4,0.6-2.5,1.7-3.3c1.1-0.7,2.5-0.9,4.1-0.4l0.2,0.1V48l0,0C68.7,47.4,66.5,48.2,65,50z"/>
	<path d="M80.3,47.8c-2.3,0-4.3,0.8-5.9,2.4C72.8,51.7,72,53.7,72,56s0.8,4.3,2.4,5.9c1.6,1.6,3.6,2.4,6,2.4c3.3,0,6.1-1.7,7.5-4.4
		l0.1-0.2l-3-1.3l-0.1,0.1c-0.9,1.7-2.5,2.7-4.4,2.7c-2.5,0-4.4-1.5-4.9-3.9h12.8v-0.2c0.3-2.6-0.4-4.8-2-6.6
		C84.9,48.7,82.8,47.8,80.3,47.8z M75.7,54.4c0.6-2.2,2.4-3.5,4.5-3.5c2.2,0,4,1.4,4.6,3.5H75.7z"/>
	<path d="M97.8,54.5c-1.9-0.4-3.6-0.7-3.6-2c0-1.1,1.1-1.8,2.7-1.8c1.8,0,2.8,0.8,3,2.3v0.2l3.5-0.7v-0.2c-0.5-2.8-3-4.5-6.5-4.5
		c-1.8,0-3.3,0.5-4.5,1.4c-1.2,0.9-1.8,2.1-1.8,3.5c0,2.1,1.3,3.6,3.5,4.1c0.6,0.1,1.2,0.2,1.8,0.3c2.2,0.4,4.2,0.8,4.2,2.2
		c0,1.1-1.3,1.9-3.2,1.9c-1.9,0-3-0.8-3.2-2.3v-0.2l-3.5,0.7v0.2c0.5,2.8,3,4.5,6.8,4.5c1.9,0,3.5-0.5,4.8-1.4c1.3-0.9,2-2.1,2-3.5
		C103.7,55.6,100.5,55,97.8,54.5z"/>
	<path d="M113.1,54.5c-1.9-0.4-3.6-0.7-3.6-2c0-1.1,1.1-1.8,2.7-1.8c1.8,0,2.8,0.8,3,2.3v0.2l3.5-0.7v-0.2c-0.5-2.8-3-4.5-6.5-4.5
		c-1.8,0-3.3,0.5-4.5,1.4c-1.2,0.9-1.8,2.1-1.8,3.5c0,2.1,1.3,3.6,3.5,4.1c0.6,0.1,1.2,0.2,1.8,0.3c2.2,0.4,4.2,0.8,4.2,2.2
		c0,1.1-1.3,1.9-3.2,1.9c-1.9,0-3-0.8-3.2-2.3v-0.2l-3.5,0.7v0.2c0.5,2.8,3,4.5,6.8,4.5c1.9,0,3.5-0.5,4.8-1.4c1.3-0.9,2-2.1,2-3.5
		C119,55.6,115.7,55,113.1,54.5z"/>
	<polygon class="st2" points="26.6,74 26,75.4 26,75.4 	"/>
	<path d="M29.9,74.7H30l-1.1,2.6c-0.6,1.6-2.2,2.6-3.9,2.7h-1c-5.5,0-10.8-1.9-15.1-5.3c-3.9-3.2-6.7-7.5-8-12.3v-0.1
		c-0.1-0.3-0.2-0.7-0.3-1l0,0C0.2,59.6,0,57.8,0,56c0-9.6,6-18.5,14.9-22.2l1.3,3.1C8.5,40.1,3.3,47.7,3.3,56c0,1.6,0.1,3.1,0.5,4.6
		h0.1C6,69.9,14.5,76.7,24.1,76.7h0.8c0.4,0,0.7-0.3,0.9-0.7l0.2-0.6l0.6-1.4l4.2-9.8l-6.6-16.1H28l4.7,11.8l4.6-11.8h3.5L29.9,74.7
		z"/>
</g>
</svg>
