<?xml version="1.0" encoding="utf-8"?>
<!-- Generator: Adobe Illustrator 27.4.1, SVG Export Plug-In . SVG Version: 6.00 Build 0)  -->
<svg version="1.1" id="Warstwa_1" xmlns="http://www.w3.org/2000/svg" xmlns:xlink="http://www.w3.org/1999/xlink" x="0px" y="0px"
	 viewBox="0 0 112.3 112.3" style="enable-background:new 0 0 112.3 112.3;" xml:space="preserve">
<path d="M36.1,71.1v-23h1.2v3.6c0.1-0.2,0.3-0.3,0.4-0.5c1-2.2,3.2-3.5,5.7-3.5c2.8-0.1,5.2,1,6.5,3.5c1.8,3.2,1.9,7,0.3,10.3
	c-1.3,2.8-4.4,4.3-7.8,3.7c-2.1-0.2-4-1.4-5-3.3v9.2L36.1,71.1z M37.4,56.3l0.3,2.7c0.5,3.1,2.3,4.9,5.2,5.2
	c2.8,0.5,5.5-1.1,6.5-3.7c1.1-2.6,1-5.6-0.2-8.2c-1-2.3-3.5-3.7-6.1-3.4c-2.4,0.2-4.4,1.8-5,4.1C37.7,54.1,37.5,55.2,37.4,56.3
	L37.4,56.3z M76.9,59.4c-0.4,3.4-3.2,5.9-6.6,6c-5.2,0.3-7.7-3.2-8.1-7.2c-0.3-2.2,0.1-4.4,1-6.4c1.3-2.8,4.3-4.4,7.4-4
	c2.9,0.2,5.4,2.3,6,5.2c0.3,1.3,0.5,2.5,0.6,3.8H63.5c-0.3,3.6,1.7,6.6,4.5,7.3c3.5,0.8,6.4-0.6,7.5-3.9
	C75.7,59.3,76.1,59.1,76.9,59.4L76.9,59.4z M63.5,55.6h12.3c-0.1-3.9-2.5-6.7-5.8-6.7C66.3,48.8,63.7,51.5,63.5,55.6z M79.4,59.5
	h1.2c0.1,1.8,1.2,3.4,2.8,4.2c2.1,0.9,4.4,0.9,6.5-0.2c1.1-0.5,1.8-1.6,1.7-2.9c0.1-1.2-0.7-2.2-1.8-2.6c-1.3-0.5-2.7-0.8-4.1-1.2
	c-1.4-0.4-2.8-0.9-4.1-1.5c-2.2-1.1-2.3-5.2,0.2-6.5c2.6-1.4,5.7-1.5,8.3-0.1c1.6,0.9,2.5,2.7,2.2,4.5h-1c0,0-0.1-0.1-0.1-0.1
	c-0.1-3.3-2.9-4.3-5.9-4c-0.9,0.1-1.8,0.4-2.6,0.8c-1,0.5-1.6,1.5-1.5,2.6c0,1.1,0.7,2,1.7,2.4c1.3,0.5,2.7,0.8,4,1.2l3.2,0.9
	c1.5,0.5,2.6,1.9,2.6,3.5c0.3,1.7-0.6,3.5-2.2,4.3c-2.8,1.6-7.5,1.2-9.6-0.8C80,62.4,79.4,61,79.4,59.5L79.4,59.5z M108.2,53.1h-1.1
	c0-0.2-0.1-0.3-0.1-0.4c0-1.7-1.3-3.2-3-3.6c-1.6-0.5-3.3-0.4-4.8,0.2c-1.2,0.4-2.1,1.5-2.1,2.8c0,1.3,0.8,2.4,2,2.7l5.2,1.3
	c0.6,0.1,1.1,0.3,1.7,0.5c1.7,0.6,2.8,2.1,2.8,3.9c0.1,1.8-1,3.4-2.6,4c-2.4,1.1-5.2,1.1-7.7,0.1c-2-0.9-3.3-2.9-3.2-5.2h1.1
	c0.4,2,1.8,3.7,3.7,4.5s4,0.6,5.8-0.5c1.1-0.5,1.7-1.7,1.6-2.8c0.1-1.2-0.7-2.2-1.8-2.6c-1.3-0.5-2.7-0.8-4.1-1.2
	c-1.4-0.4-2.8-0.9-4.1-1.5c-2.1-1-2.3-5.2,0.1-6.5c2.6-1.5,5.8-1.5,8.4-0.1C107.6,49.6,108.4,51.3,108.2,53.1L108.2,53.1z
	 M34.1,64.9c-0.9,0.3-2,0-2.4-0.9l-4.4-6.1l-0.6-0.8L21.5,64c-0.4,0.8-1.4,1.2-2.3,0.9l6.6-8.8l-6.1-8c0.9-0.3,1.9,0,2.4,0.9
	l4.6,6.2l4.6-6.1c0.4-0.8,1.4-1.2,2.3-0.9l-2.4,3.2L28,55.5c-0.4,0.3-0.4,0.9-0.1,1.2c0,0,0,0,0.1,0.1L34.1,64.9L34.1,64.9z M62,48
	v1.2c-3.4-0.2-6.3,2.4-6.6,5.8c0,0.2,0,0.4,0,0.6c0,2.8,0,5.6,0,8.4v1h-1.2V48.1h1.2v3.5C56.9,49,59.2,48.1,62,48L62,48z M3.5,56
	L4,53.3c1.5-5.2,7.5-7.4,11.6-4.2c2.4,1.9,3,4.6,2.9,7.6H4.9c-0.2,5.4,3.7,8.7,8.7,7c1.6-0.6,2.9-2,3.3-3.7c0.3-0.8,0.7-1,1.5-0.8
	c-0.3,2.1-1.5,4-3.3,5c-3,1.7-6.8,1.2-9.3-1.2c-1.2-1.4-1.9-3.1-2.1-4.9c0-0.3-0.1-0.6-0.2-0.9C3.5,57,3.5,56.5,3.5,56L3.5,56z
	 M4.9,55.6h12.3c-0.1-3.9-2.6-6.7-5.9-6.7C7.7,48.8,5.1,51.6,4.9,55.6L4.9,55.6z"/>
</svg>
