<?xml version="1.0" encoding="utf-8"?>
<!-- Generator: Adobe Illustrator 27.4.1, SVG Export Plug-In . SVG Version: 6.00 Build 0)  -->
<svg version="1.1" id="Warstwa_1" xmlns="http://www.w3.org/2000/svg" xmlns:xlink="http://www.w3.org/1999/xlink" x="0px" y="0px"
	 viewBox="0 0 120 60" style="enable-background:new 0 0 120 60;" xml:space="preserve">
<g transform="matrix(.217946 0 0 .217946 4.120542 14.085548)">
	<path d="M471,51.6c-1.2,0-2.5,0.3-3.5,0.9L433.6,72c-2.2,1.3-3.5,3.7-3.5,6.2v39.1c0,2.5,1.3,4.9,3.5,6.2l8.9,5.1
		c4.3,2.1,5.9,2.1,7.8,2.1c6.4,0,10-3.9,10-10.6V81.5c0-0.5-0.5-0.9-1-0.9h-4.2c-0.5,0-1,0.4-1,0.9v38.6c0,3-3.1,6-8.1,3.5l-9.2-5.4
		c-0.3-0.2-0.6-0.5-0.6-0.9V78.2c0-0.4,0.2-0.7,0.6-0.9l33.8-19.5c0.3-0.2,0.7-0.2,1,0l33.8,19.5c0.3,0.2,0.6,0.6,0.6,0.9v39.1
		c0,0.4-0.2,0.8-0.5,0.9l-33.9,19.5c-0.3,0.2-0.7,0.2-1,0l-8.7-5.2c-0.3-0.2-0.6-0.1-0.9,0c-2.4,1.4-2.9,1.5-5.1,2.3
		c-0.6,0.2-1.4,0.5,0.3,1.4l11.4,6.7c1.1,0.6,2.3,0.9,3.5,0.9c1.3,0,2.4-0.3,3.5-0.9l33.9-19.5c2.2-1.3,3.5-3.7,3.5-6.2V78.2
		c0-2.5-1.3-4.9-3.5-6.2l-33.9-19.6C473.5,51.9,472.3,51.6,471,51.6L471,51.6z M480.1,79.5c-9.6,0-15.4,4.1-15.4,10.9
		c0,7.4,5.7,9.4,15,10.4c11.1,1.1,11.9,2.7,11.9,4.9c0,3.8-3,5.4-10.1,5.4c-9,0-10.9-2.2-11.6-6.7c-0.1-0.5-0.4-0.9-0.9-0.9h-4.4
		c-0.6,0-1,0.5-1,1c0,5.7,3.1,12.4,17.9,12.4c10.7,0,16.9-4.2,16.9-11.6c0-7.3-5-9.3-15.4-10.7c-10.5-1.4-11.5-2.1-11.5-4.5
		c0-2,0.9-4.8,8.6-4.8c7,0,9.5,1.5,10.6,6.2c0.1,0.4,0.5,0.8,0.9,0.8h4.4c0.3,0,0.5-0.2,0.7-0.4c0.2-0.2,0.3-0.4,0.3-0.7
		C496.3,83.3,491,79.5,480.1,79.5L480.1,79.5z"/>
	<path d="M271.8,0.4c-0.4,0-0.8,0.1-1.1,0.3c-0.7,0.4-1.1,1.1-1.1,1.9v55c0,0.5-0.3,1-0.7,1.3c-0.5,0.3-1,0.3-1.5,0l-9-5.2
		c-1.3-0.8-3-0.8-4.3,0l-35.9,20.7c-1.3,0.8-2.2,2.3-2.2,3.8v41.4c0,1.5,0.8,3,2.2,3.7l35.9,20.7c1.3,0.8,3,0.8,4.3,0l35.9-20.7
		c1.3-0.8,2.2-2.2,2.2-3.7V16.4c0-1.6-0.9-3-2.2-3.8L272.9,0.6C272.6,0.4,272.2,0.4,271.8,0.4L271.8,0.4z M40.9,52.1
		c-0.7,0-1.3,0.1-1.9,0.5L3,73.3c-1.3,0.8-2.2,2.2-2.2,3.7l0.1,55.6c0,0.8,0.4,1.5,1.1,1.9c0.7,0.4,1.5,0.4,2.2,0l21.3-12.2
		c1.4-0.8,2.2-2.2,2.2-3.7v-26c0-1.6,0.8-3,2.2-3.7l9.1-5.3c0.7-0.4,1.4-0.6,2.2-0.6c0.8,0,1.5,0.2,2.2,0.6l9.1,5.2
		c1.3,0.8,2.2,2.2,2.2,3.7v26c0,1.5,0.9,2.9,2.2,3.7L78,134.6c0.7,0.4,1.5,0.4,2.2,0c0.7-0.4,1.1-1.1,1.1-1.9l0.1-55.6
		c0-1.5-0.8-3-2.2-3.7L43.2,52.6c-0.6-0.4-1.3-0.5-1.9-0.5L40.9,52.1L40.9,52.1z M363.5,52.6c-0.8,0-1.5,0.2-2.2,0.6l-35.9,20.7
		c-1.3,0.8-2.2,2.2-2.2,3.7v41.4c0,1.6,0.9,3,2.2,3.7l35.6,20.3c1.3,0.8,2.9,0.8,4.2,0.1l21.6-12c0.7-0.4,1.1-1.1,1.1-1.9
		s-0.4-1.5-1.1-1.9l-36.1-20.7c-0.7-0.4-1.1-1.2-1.1-1.9v-13c0-0.8,0.5-1.5,1.1-1.9l11.2-6.5c0.7-0.4,1.5-0.4,2.2,0l11.2,6.5
		c0.7,0.4,1.1,1.1,1.1,1.9V102c0,0.8,0.4,1.5,1.1,1.9c0.7,0.4,1.5,0.4,2.2,0l21.5-12.5c1.3-0.8,2.2-2.2,2.2-3.7v-10
		c0-1.5-0.8-3-2.2-3.7l-35.7-20.7C365,52.8,364.2,52.6,363.5,52.6L363.5,52.6z M256.1,83.6c0.2,0,0.4,0,0.6,0.1l12.3,7.1
		c0.3,0.2,0.6,0.6,0.6,0.9V106c0,0.4-0.2,0.7-0.6,0.9l-12.3,7.1c-0.3,0.2-0.7,0.2-1.1,0l-12.3-7.1c-0.3-0.2-0.6-0.6-0.6-0.9V91.8
		c0-0.4,0.2-0.7,0.6-0.9l12.3-7.1C255.8,83.6,255.9,83.6,256.1,83.6L256.1,83.6L256.1,83.6z"/>
	<path d="M148.7,52.4c-0.8,0-1.5,0.2-2.2,0.6l-35.9,20.6c-1.3,0.8-2.2,2.3-2.2,3.8v41.4c0,1.5,0.8,3,2.2,3.7l35.9,20.7
		c1.3,0.8,3,0.8,4.3,0l35.9-20.7c1.3-0.8,2.2-2.2,2.2-3.7V77.4c0-1.6-0.8-3-2.2-3.8L150.9,53C150.2,52.6,149.5,52.4,148.7,52.4
		L148.7,52.4z M363.4,89.4c-0.1,0-0.3,0-0.4,0.1l-6.9,4c-0.3,0.1-0.4,0.4-0.4,0.7v7.9c0,0.3,0.2,0.6,0.4,0.7l6.9,4
		c0.2,0.1,0.5,0.1,0.8,0l6.9-4c0.3-0.1,0.4-0.4,0.4-0.7v-7.9c0-0.3-0.2-0.6-0.4-0.7l-6.9-4C363.6,89.4,363.6,89.4,363.4,89.4
		L363.4,89.4z"/>
</g>
</svg>
