<?xml version="1.0"?><svg xmlns="http://www.w3.org/2000/svg"  viewBox="0 0 50 50" width="150px" height="150px">    <path d="M 6 4 C 4.9 4 4 4.9 4 6 L 4 44 C 4 45.1 4.9 46 6 46 L 44 46 C 45.1 46 46 45.1 46 44 L 46 6 C 46 4.9 45.1 4 44 4 L 6 4 z M 19.929688 14 L 22.650391 14 L 27.449219 36 L 25.009766 36 L 23.619141 29.570312 L 18.820312 29.570312 L 17.400391 36 L 15 36 L 19.929688 14 z M 32.730469 14 C 33.660469 14 34.25 14.630547 34.25 15.560547 C 34.25 16.500547 33.660469 17.130859 32.730469 17.130859 L 32.699219 17.130859 C 31.879219 17.130859 31.25 16.500547 31.25 15.560547 C 31.25 14.630547 31.910469 14 32.730469 14 z M 21.230469 16.439453 C 20.970469 18.069453 20.650078 19.930391 20.330078 21.400391 L 19.230469 27 L 23.320312 27 L 22.189453 21.369141 C 21.869453 19.829141 21.580312 18.039453 21.320312 16.439453 L 21.230469 16.439453 z M 31.5 19 L 34 19 L 34 36 L 31.5 36 L 31.5 19 z"/></svg>