<?xml version="1.0" standalone="no"?>
<!DOCTYPE svg PUBLIC "-//W3C//DTD SVG 20010904//EN"
 "http://www.w3.org/TR/2001/REC-SVG-20010904/DTD/svg10.dtd">
<svg version="1.0" xmlns="http://www.w3.org/2000/svg"
 width="300.000000pt" height="299.000000pt" viewBox="0 0 300.000000 299.000000"
 preserveAspectRatio="xMidYMid meet">
<metadata>
Created by potrace 1.10, written by Peter Selinger 2001-2011
</metadata>
<g transform="translate(0.000000,299.000000) scale(0.050000,-0.050000)"
fill="#000000" stroke="none">
<path d="M4980 5471 c-151 -314 -171 -348 -202 -326 -648 473 -1119 642 -1788
642 -2085 -1 -3436 -2211 -2481 -4059 879 -1701 3165 -2035 4492 -655 779 810
961 1845 588 3361 -74 302 -378 1270 -428 1362 -8 16 -79 -110 -181 -325z
m217 -621 c580 -1908 308 -3174 -757 -3531 -336 -112 -461 -124 -1490 -131
-1089 -8 -1058 -24 -370 191 237 75 500 164 585 200 728 304 1423 1072 1663
1837 67 213 65 246 -4 94 -467 -1033 -1580 -1740 -3116 -1981 -337 -53 -617
598 -498 1158 149 705 711 1093 1670 1154 603 38 837 88 1169 249 431 209 840
568 1006 884 66 126 66 126 142 -124z m-3395 -3586 c120 -107 72 -300 -87
-344 -199 -56 -340 185 -197 338 79 85 193 87 284 6z"/>
</g>
</svg>
